<svg id="hr-logo-svg" width="200" height="120" viewBox="0 0 200 120" xmlns="http://www.w3.org/2000/svg"><circle cx="60" cy="60" r="45" fill="#1e40af" opacity="0.1"/><g transform="translate(45, 25)"><circle cx="15" cy="12" r="8" fill="#1e40af"/><rect x="10" y="22" width="10" height="20" rx="2" fill="#1e40af"/><rect x="5" y="25" width="6" height="3" rx="1.5" fill="#1e40af"/><rect x="19" y="25" width="6" height="3" rx="1.5" fill="#1e40af"/><rect x="12" y="42" width="3" height="12" rx="1.5" fill="#1e40af"/><rect x="17" y="42" width="3" height="12" rx="1.5" fill="#1e40af"/></g><g transform="translate(25, 35)" opacity="0.6"><circle cx="8" cy="8" r="5" fill="#0891b2"/><rect x="5" y="15" width="6" height="12" rx="1" fill="#0891b2"/><rect x="7" y="27" width="2" height="8" rx="1" fill="#0891b2"/></g><g transform="translate(75, 35)" opacity="0.6"><circle cx="8" cy="8" r="5" fill="#0891b2"/><rect x="5" y="15" width="6" height="12" rx="1" fill="#0891b2"/><rect x="7" y="27" width="2" height="8" rx="1" fill="#0891b2"/></g><g transform="translate(85, 45)"><circle cx="8" cy="8" r="6" fill="none" stroke="#64748b" stroke-width="1.5"/><circle cx="8" cy="8" r="3" fill="none" stroke="#64748b" stroke-width="1.5"/><g stroke="#64748b" stroke-width="1.5"><line x1="8" y1="2" x2="8" y2="4"/><line x1="8" y1="12" x2="8" y2="14"/><line x1="14" y1="8" x2="12" y2="8"/><line x1="4" y1="8" x2="2" y2="8"/></g></g><g transform="translate(25, 75)"><rect x="0" y="0" width="12" height="15" rx="1" fill="none" stroke="#64748b" stroke-width="1.5"/><line x1="3" y1="4" x2="9" y2="4" stroke="#64748b" stroke-width="1"/><line x1="3" y1="7" x2="9" y2="7" stroke="#64748b" stroke-width="1"/><line x1="3" y1="10" x2="6" y2="10" stroke="#64748b" stroke-width="1"/></g><text x="110" y="45" font-family="Arial, sans-serif" font-size="18" font-weight="600" fill="#1e40af">HR</text><text x="110" y="65" font-family="Arial, sans-serif" font-size="14" font-weight="400" fill="#64748b">Management</text><text x="110" y="80" font-family="Arial, sans-serif" font-size="14" font-weight="400" fill="#64748b">System</text></svg>