<svg id="simple-hr-logo" width="400" height="160" viewBox="0 0 400 160" xmlns="http://www.w3.org/2000/svg" style="background-color: transparent;"><g><g transform="translate(80, 80)"><circle cx="0" cy="-15" r="12" fill="#1e293b" fill-opacity="0.9"/><rect x="-6" y="0" width="12" height="25" rx="2" fill="#1e293b" fill-opacity="0.9"/><line x1="-12" y1="10" x2="-6" y2="10" stroke="#1e293b" stroke-width="2" stroke-linecap="round"/><line x1="12" y1="10" x2="6" y2="10" stroke="#1e293b" stroke-width="2" stroke-linecap="round"/></g><g transform="translate(140, 80)"><circle cx="0" cy="-15" r="12" fill="#1e293b" fill-opacity="0.6"/><rect x="-6" y="0" width="12" height="25" rx="2" fill="#1e293b" fill-opacity="0.6"/><line x1="-12" y1="10" x2="-6" y2="10" stroke="#1e293b" stroke-width="2" stroke-linecap="round" stroke-opacity="0.6"/><line x1="12" y1="10" x2="6" y2="10" stroke="#1e293b" stroke-width="2" stroke-linecap="round" stroke-opacity="0.6"/></g><g transform="translate(200, 80)"><circle cx="0" cy="-15" r="12" fill="#1e293b" fill-opacity="0.8"/><rect x="-6" y="0" width="12" height="25" rx="2" fill="#1e293b" fill-opacity="0.8"/><line x1="-12" y1="10" x2="-6" y2="10" stroke="#1e293b" stroke-width="2" stroke-linecap="round"/><line x1="12" y1="10" x2="6" y2="10" stroke="#1e293b" stroke-width="2" stroke-linecap="round"/></g><line x1="80" y1="80" x2="200" y2="80" stroke="#1e293b" stroke-width="1" stroke-opacity="0.4"/><g transform="translate(260, 80)"><rect x="-15" y="-20" width="30" height="40" rx="3" fill="#1e293b" fill-opacity="0.2" stroke="#1e293b" stroke-width="1"/><line x1="-8" y1="-10" x2="8" y2="-10" stroke="#1e293b" stroke-width="1"/><line x1="-8" y1="0" x2="8" y2="0" stroke="#1e293b" stroke-width="1"/><line x1="-8" y1="10" x2="4" y2="10" stroke="#1e293b" stroke-width="1"/></g><g transform="translate(320, 80)"><circle cx="0" cy="0" r="15" fill="#1e293b" fill-opacity="0.2" stroke="#1e293b" stroke-width="1"/><circle cx="0" cy="0" r="5" fill="none" stroke="#1e293b" stroke-width="1"/><line x1="0" y1="-15" x2="0" y2="-5" stroke="#1e293b" stroke-width="1"/><line x1="0" y1="5" x2="0" y2="15" stroke="#1e293b" stroke-width="1"/><line x1="-15" y1="0" x2="-5" y2="0" stroke="#1e293b" stroke-width="1"/><line x1="5" y1="0" x2="15" y2="0" stroke="#1e293b" stroke-width="1"/><line x1="-10.6" y1="-10.6" x2="-3.5" y2="-3.5" stroke="#1e293b" stroke-width="1"/><line x1="10.6" y1="-10.6" x2="3.5" y2="-3.5" stroke="#1e293b" stroke-width="1"/><line x1="-10.6" y1="10.6" x2="-3.5" y2="3.5" stroke="#1e293b" stroke-width="1"/><line x1="10.6" y1="10.6" x2="3.5" y2="3.5" stroke="#1e293b" stroke-width="1"/></g><text x="200" y="40" font-family="Arial, sans-serif" font-size="20" font-weight="700" fill="#1e293b" text-anchor="middle">HR MANAGEMENT</text><text x="200" y="130" font-family="Arial, sans-serif" font-size="14" font-weight="400" fill="#1e293b" text-anchor="middle">SYSTEM</text></g></svg>